<svg width="11" height="14" viewBox="0 0 11 14" fill="none" xmlns="http://www.w3.org/2000/svg">
<path d="M5.49973 5.63889C6.681 5.63889 7.63862 4.68128 7.63862 3.5C7.63862 2.31873 6.681 1.36111 5.49973 1.36111C4.31845 1.36111 3.36084 2.31873 3.36084 3.5C3.36084 4.68128 4.31845 5.63889 5.49973 5.63889Z" stroke="#8F8F8F" stroke-width="1.5" stroke-linecap="round" stroke-linejoin="round"/>
<path d="M9.20356 12.068C9.87245 11.8572 10.224 11.1183 9.94012 10.4775C9.18567 8.77334 7.48312 7.58334 5.49979 7.58334C3.51645 7.58334 1.8139 8.77334 1.05945 10.4775C0.775564 11.1191 1.12712 11.8572 1.79601 12.068C2.74879 12.3682 4.00956 12.6389 5.49979 12.6389C6.99001 12.6389 8.25079 12.3682 9.20356 12.068Z" stroke="#8F8F8F" stroke-width="1.5" stroke-linecap="round" stroke-linejoin="round"/>
</svg>
